PathFileType	4	(X/Y/Z)	Gait_latera_markers.trc
DataRate	CameraRate	NumFrames	NumMarkers	Units	OrigDataRate	OrigDataStartFrame	OrigNumFrames
100	100	8	38	m	100	12	88
Frame#	Time	RASI			RPSI			LPSI			LASI			RTROCH			RTHI			RTHI2			RTHI3			RTHI4			RKNE			RKNEM			RTIB			RTIB2			RTIB3			RTIB4			RANK			RANKM			RHEE			RTOE			RTOEL			RTOEM			LTROCH			LTHI			LTHI2			LTHI3			LTHI4			LKNE			LKNEM			LTIB			LTIB2			LTIB3			LTIB4			LANK			LANKM			LHEE			LTOE			LTOEL			LTOEM
		X1	Y1	Z1	X2	Y2	Z2	X3	Y3	Z3	X4	Y4	Z4	X5	Y5	Z5	X6	Y6	Z6	X7	Y7	Z7	X8	Y8	Z8	X9	Y9	Z9	X10	Y10	Z10	X11	Y11	Z11	X12	Y12	Z12	X13	Y13	Z13	X14	Y14	Z14	X15	Y15	Z15	X16	Y16	Z16	X17	Y17	Z17	X18	Y18	Z18	X19	Y19	Z19	X20	Y20	Z20	X21	Y21	Z21	X22	Y22	Z22	X23	Y23	Z23	X24	Y24	Z24	X25	Y25	Z25	X26	Y26	Z26	X27	Y27	Z27	X28	Y28	Z28	X29	Y29	Z29	X30	Y30	Z30	X31	Y31	Z31	X32	Y32	Z32	X33	Y33	Z33	X34	Y34	Z34	X35	Y35	Z35	X36	Y36	Z36	X37	Y37	Z37	X38	Y38	Z38

12	0.110000	-0.314301	0.938406	-0.601891	-0.243706	0.982631	-0.783944	-0.147486	0.966384	-0.775777	-0.086554	0.946320	-0.587698	-0.370723	0.872423	-0.686708	-0.374658	0.762611	-0.728621	-0.370189	0.755125	-0.665381	-0.358129	0.672602	-0.669880	-0.362314	0.674840	-0.731528	-0.332153	0.529888	-0.768789	-0.216514	0.532491	-0.749531	-0.343722	0.416041	-0.852165	-0.320555	0.389028	-0.798303	-0.316422	0.310188	-0.839772	-0.339426	0.342230	-0.890504	-0.279722	0.150350	-0.995195	-0.214310	0.142041	-0.952040	-0.227859	0.109531	-1.059575	-0.300437	0.049127	-0.847928	-0.345854	0.043217	-0.915087	-0.240526	0.032794	-0.856309	-0.030769	0.871089	-0.659518	-0.022432	0.673454	-0.569998	-0.038566	0.694958	-0.513361	-0.053989	0.616739	-0.490218	-0.038774	0.590133	-0.547112	-0.062081	0.521287	-0.501400	-0.164710	0.543376	-0.491425	-0.054867	0.295750	-0.475640	-0.064178	0.321462	-0.416732	-0.074928	0.238091	-0.393717	-0.068617	0.217251	-0.452678	-0.092041	0.093171	-0.399448	-0.156677	0.133394	-0.362600	-0.151274	0.044413	-0.422334	-0.071750	0.121480	-0.218632	-0.030581	0.082640	-0.264179	-0.125025	0.109287	-0.219404
13	0.120000	-0.313318	0.937629	-0.588451	-0.242204	0.981818	-0.770379	-0.145992	0.965263	-0.761517	-0.085666	0.945556	-0.573041	-0.369841	0.871917	-0.673701	-0.373399	0.761611	-0.715677	-0.369867	0.754530	-0.652686	-0.358297	0.672638	-0.657057	-0.361907	0.674075	-0.718456	-0.332818	0.528386	-0.754672	-0.217180	0.531158	-0.734221	-0.345243	0.416730	-0.841243	-0.320472	0.385674	-0.789117	-0.318135	0.310120	-0.831112	-0.340053	0.344488	-0.881101	-0.280869	0.155077	-0.990589	-0.215466	0.145701	-0.947417	-0.228777	0.116536	-1.055934	-0.300447	0.048656	-0.847198	-0.346153	0.043981	-0.914820	-0.240844	0.033057	-0.855925	-0.030146	0.869865	-0.645047	-0.022193	0.671837	-0.556246	-0.036280	0.693338	-0.498939	-0.052480	0.615171	-0.475737	-0.039510	0.588100	-0.532753	-0.063531	0.519537	-0.486871	-0.164179	0.541948	-0.477208	-0.056433	0.294371	-0.463979	-0.066301	0.319249	-0.404862	-0.077840	0.235276	-0.383285	-0.069363	0.215721	-0.442074	-0.093381	0.091422	-0.392222	-0.159304	0.130057	-0.356141	-0.151895	0.046007	-0.418744	-0.076778	0.114558	-0.211186	-0.035190	0.078886	-0.258295	-0.129515	0.100772	-0.213055
14	0.130000	-0.312312	0.937250	-0.575269	-0.240131	0.980804	-0.756483	-0.144207	0.964672	-0.747544	-0.084544	0.945176	-0.558688	-0.369146	0.871161	-0.660994	-0.372283	0.761239	-0.702889	-0.369527	0.754313	-0.639770	-0.358988	0.671512	-0.643362	-0.361220	0.673125	-0.704642	-0.333698	0.526165	-0.738507	-0.218170	0.529145	-0.717650	-0.345781	0.417061	-0.827743	-0.325271	0.387149	-0.776083	-0.319771	0.311486	-0.820395	-0.340833	0.346457	-0.870351	-0.282290	0.160660	-0.985296	-0.216888	0.149852	-0.941890	-0.229623	0.124572	-1.051335	-0.300611	0.048383	-0.846460	-0.346422	0.044925	-0.913909	-0.240908	0.033656	-0.855618	-0.029567	0.868750	-0.630476	-0.022409	0.670395	-0.543324	-0.034537	0.691455	-0.485350	-0.051419	0.613009	-0.462726	-0.040078	0.586297	-0.520111	-0.064373	0.518144	-0.474206	-0.164985	0.540015	-0.464605	-0.056812	0.293660	-0.451471	-0.067760	0.317770	-0.392358	-0.079438	0.233341	-0.371950	-0.070567	0.213826	-0.430681	-0.092784	0.091375	-0.384946	-0.160452	0.127269	-0.348765	-0.150933	0.048467	-0.414985	-0.080554	0.105777	-0.204022	-0.038237	0.072232	-0.252554	-0.132837	0.091735	-0.207266
15	0.140000	-0.311605	0.937371	-0.561931	-0.237984	0.980097	-0.742680	-0.141876	0.964164	-0.733047	-0.084212	0.945189	-0.544263	-0.367487	0.871052	-0.647196	-0.370760	0.760588	-0.689343	-0.368943	0.754245	-0.626233	-0.359263	0.671934	-0.629190	-0.360850	0.672590	-0.690334	-0.334935	0.524852	-0.721984	-0.219483	0.527026	-0.699746	-0.346905	0.417899	-0.813432	-0.326718	0.385725	-0.762566	-0.321572	0.312091	-0.809402	-0.341828	0.348771	-0.858281	-0.283407	0.166831	-0.978616	-0.218045	0.154592	-0.935196	-0.230359	0.133835	-1.045291	-0.299648	0.048926	-0.844322	-0.346659	0.046162	-0.912708	-0.241178	0.034085	-0.855073	-0.028243	0.869327	-0.615456	-0.022455	0.669748	-0.531187	-0.032656	0.689910	-0.472319	-0.050525	0.610984	-0.451705	-0.040383	0.585870	-0.510120	-0.063553	0.517597	-0.462661	-0.166576	0.538135	-0.455203	-0.055648	0.294142	-0.439096	-0.067970	0.317314	-0.379848	-0.079511	0.232187	-0.361329	-0.068328	0.214258	-0.420107	-0.091840	0.090494	-0.378530	-0.159860	0.125509	-0.341510	-0.150517	0.050488	-0.412158	-0.081188	0.095841	-0.197033	-0.039027	0.064748	-0.247343	-0.134113	0.081977	-0.201946
16	0.150000	-0.310716	0.937626	-0.548738	-0.235909	0.979670	-0.728935	-0.139600	0.964394	-0.719344	-0.083890	0.945567	-0.530140	-0.366111	0.871133	-0.633922	-0.369120	0.759927	-0.675027	-0.368105	0.754433	-0.612044	-0.359690	0.671822	-0.614080	-0.360399	0.671950	-0.675115	-0.336429	0.523601	-0.703887	-0.221245	0.524696	-0.680342	-0.347650	0.418336	-0.797054	-0.325218	0.382804	-0.748816	-0.323344	0.313027	-0.796668	-0.343001	0.351345	-0.844579	-0.284651	0.173951	-0.970602	-0.219378	0.159520	-0.926849	-0.230615	0.145065	-1.038255	-0.301100	0.048698	-0.844426	-0.346752	0.048022	-0.911153	-0.241441	0.034636	-0.854225	-0.027554	0.869965	-0.600630	-0.021568	0.670107	-0.519913	-0.031907	0.688919	-0.460808	-0.048570	0.610000	-0.441814	-0.038861	0.585892	-0.500788	-0.061289	0.518109	-0.450684	-0.166969	0.538270	-0.447073	-0.052834	0.295103	-0.427714	-0.067331	0.316889	-0.368452	-0.079100	0.231219	-0.352323	-0.065539	0.214800	-0.411006	-0.090892	0.089816	-0.374416	-0.158650	0.124147	-0.336402	-0.149661	0.052069	-0.410219	-0.079484	0.087559	-0.192738	-0.037427	0.057840	-0.244302	-0.132512	0.074931	-0.198260
17	0.160000	-0.310095	0.938598	-0.535541	-0.234099	0.979414	-0.715464	-0.137765	0.965037	-0.706062	-0.083673	0.946546	-0.516783	-0.364959	0.871001	-0.620919	-0.367776	0.759279	-0.660261	-0.367365	0.754983	-0.597407	-0.359811	0.672040	-0.597975	-0.360244	0.671208	-0.659317	-0.338396	0.522415	-0.684597	-0.223537	0.522524	-0.659721	-0.350068	0.419506	-0.779517	-0.329217	0.382916	-0.731476	-0.325345	0.314137	-0.782582	-0.344404	0.354095	-0.829002	-0.285772	0.182004	-0.961072	-0.220447	0.165370	-0.916831	-0.230754	0.156979	-1.028857	-0.301306	0.048678	-0.842828	-0.346783	0.050650	-0.909113	-0.241993	0.035205	-0.852612	-0.025916	0.871857	-0.586100	-0.019619	0.671544	-0.508661	-0.031484	0.689732	-0.449894	-0.046469	0.610058	-0.431225	-0.034796	0.586957	-0.490315	-0.059038	0.520678	-0.437601	-0.165896	0.540026	-0.438693	-0.050205	0.296114	-0.418579	-0.065626	0.316562	-0.359246	-0.077749	0.230516	-0.345145	-0.063086	0.215586	-0.403946	-0.090704	0.089172	-0.371969	-0.156998	0.123489	-0.332419	-0.149092	0.053336	-0.408865	-0.075488	0.081179	-0.190168	-0.034784	0.052437	-0.243422	-0.129186	0.069985	-0.195916
18	0.170000	-0.309356	0.939576	-0.522747	-0.232738	0.979685	-0.702269	-0.136395	0.966461	-0.693241	-0.083142	0.948490	-0.504016	-0.362993	0.871504	-0.607011	-0.366441	0.758289	-0.644816	-0.366153	0.755173	-0.581641	-0.359904	0.672420	-0.580902	-0.360370	0.670668	-0.642467	-0.340808	0.521307	-0.663616	-0.226248	0.520499	-0.637499	-0.351968	0.420837	-0.760093	-0.333827	0.383953	-0.712688	-0.327612	0.315666	-0.766783	-0.346407	0.357175	-0.811672	-0.286385	0.189875	-0.948751	-0.221841	0.171338	-0.904821	-0.230703	0.169566	-1.016584	-0.301713	0.048808	-0.840724	-0.346569	0.054446	-0.906611	-0.243242	0.035130	-0.850109	-0.024681	0.874427	-0.572422	-0.017809	0.673998	-0.496341	-0.031408	0.692691	-0.438032	-0.044065	0.613372	-0.418143	-0.031378	0.589515	-0.476734	-0.057268	0.523382	-0.423989	-0.163912	0.542461	-0.429911	-0.047669	0.296967	-0.411074	-0.063276	0.316044	-0.351514	-0.075666	0.229926	-0.339319	-0.060771	0.216100	-0.398102	-0.089825	0.089304	-0.369757	-0.155487	0.122851	-0.328802	-0.148490	0.054176	-0.407764	-0.072181	0.075796	-0.188215	-0.031940	0.047671	-0.242497	-0.126277	0.065943	-0.194146
19	0.180000	-0.308491	0.941092	-0.510134	-0.232027	0.980382	-0.689416	-0.135643	0.968227	-0.680749	-0.084237	0.950663	-0.492297	-0.361491	0.871678	-0.593518	-0.365664	0.757769	-0.629099	-0.365125	0.755751	-0.565508	-0.360288	0.672880	-0.563101	-0.360272	0.669973	-0.624086	-0.343676	0.520361	-0.641667	-0.229048	0.518007	-0.613703	-0.354058	0.422099	-0.739119	-0.336656	0.383886	-0.693010	-0.329702	0.317470	-0.749843	-0.348385	0.360194	-0.793319	-0.287263	0.199048	-0.935394	-0.223356	0.177587	-0.890983	-0.230630	0.185191	-1.003748	-0.301942	0.049331	-0.837269	-0.345957	0.059388	-0.902945	-0.242051	0.038523	-0.847480	-0.023607	0.877579	-0.559657	-0.016642	0.677052	-0.482682	-0.029575	0.696838	-0.424649	-0.042712	0.618111	-0.403226	-0.030839	0.593116	-0.461545	-0.055751	0.524906	-0.411501	-0.160442	0.544251	-0.415657	-0.045378	0.297794	-0.404573	-0.061215	0.315720	-0.344751	-0.073843	0.229431	-0.334139	-0.059038	0.216678	-0.393225	-0.089183	0.089269	-0.367921	-0.154557	0.122614	-0.326416	-0.148101	0.054842	-0.407120	-0.071343	0.071715	-0.186300	-0.030944	0.044977	-0.241145	-0.125575	0.062491	-0.192701
